<?xml version="1.0" encoding="UTF-8"?>
<svg id="Layer_2" data-name="Layer 2" xmlns="http://www.w3.org/2000/svg" viewBox="0 0 343.49 219.64">
  <g id="Layer_1-2" data-name="Layer 1">
    <path d="m51.98,103.96C23.32,103.96,0,80.65,0,51.98S23.32,0,51.98,0s51.98,23.32,51.98,51.98-23.32,51.98-51.98,51.98Zm0-98.96C26.08,5,5,26.08,5,51.98s21.08,46.98,46.98,46.98,46.98-21.08,46.98-46.98S77.89,5,51.98,5Z"/>
    <path d="m117.96,103.96c-1.38,0-2.5-1.12-2.5-2.5v-16.49c0-1.38,1.12-2.5,2.5-2.5h8.26c2.88.01,5.59,1.16,7.63,3.22,2.03,2.06,3.13,4.77,3.11,7.62-.05,5.85-4.87,10.62-10.74,10.65h-8.26Zm2.5-5h5.75c3.14-.01,5.72-2.57,5.75-5.69.01-1.52-.58-2.96-1.67-4.07-1.1-1.11-2.55-1.73-4.08-1.73h-5.74v11.49Z"/>
    <path d="m96.52,133.84c-.22.21-.44.42-.67.61,2.36,1.98,3.87,4.94,3.89,8.24v76.73h-5v-76.72c0-3.14-2.57-5.72-5.7-5.75h-.05c-1.5,0-2.92.59-4.01,1.67-1.11,1.1-1.73,2.55-1.74,4.09v76.71h-5v-76.72c.02-2.89,1.16-5.6,3.23-7.64.22-.21.44-.41.67-.6-2.36-1.98-3.88-4.95-3.9-8.25v-10.75h5v10.74c.02,3.14,2.57,5.72,5.7,5.75h.05c1.5,0,2.92-.59,4.01-1.67,1.12-1.1,1.73-2.55,1.74-4.09v-10.73h5v10.74c0,2.89-1.16,5.6-3.22,7.64Z"/>
    <path d="m276.51,115.46v93.21c-.01,2.89-1.16,5.6-3.22,7.64-2.04,2.01-4.71,3.11-7.53,3.11h-.1c-5.85-.05-10.62-4.87-10.65-10.74v-2.5s4.99-.02,4.99-.02v2.5c.03,3.15,2.58,5.73,5.71,5.76h.05c1.5,0,2.92-.59,4.01-1.67,1.12-1.09,1.73-2.55,1.74-4.09v-7.42c-1.71,1.1-3.69,1.69-5.75,1.69h-.1c-5.85-.06-10.62-4.87-10.65-10.74v-76.73h5v76.72c.02,3.14,2.57,5.72,5.7,5.75h.05c1.5,0,2.92-.59,4.01-1.67,1.12-1.1,1.73-2.55,1.74-4.09v-76.71h5Z"/>
    <path d="m343.1,115.46v93.21c0,2.89-1.15,5.6-3.22,7.64-2.03,2.01-4.7,3.11-7.52,3.11h-.1c-5.85-.05-10.63-4.87-10.65-10.74v-2.5s4.99-.02,4.99-.02v2.5c.02,3.15,2.58,5.73,5.71,5.76h.05c1.5,0,2.92-.59,4.01-1.67,1.11-1.09,1.73-2.55,1.73-4.09v-7.41c-1.71,1.1-3.69,1.68-5.74,1.68h-.1c-5.85-.06-10.63-4.87-10.65-10.74v-76.73h5v76.72c0,3.14,2.57,5.72,5.7,5.75h.05c1.5,0,2.92-.59,4.01-1.67,1.11-1.1,1.73-2.55,1.73-4.09v-76.71h5Z"/>
    <path d="m120.46,103.96h-5V2.5c0-1.38,1.12-2.5,2.5-2.5h18.99v5h-16.49v98.96Z"/>
    <rect x="148.45" width="5" height="103.96"/>
    <rect x="148.45" y="82.47" width="47.1" height="5"/>
    <polygon points="160.56 115.46 160.56 120.46 152.13 120.46 152.13 219.42 147.13 219.42 147.13 120.46 138.59 120.46 138.59 115.46 160.56 115.46"/>
    <polygon points="248.95 115.46 248.95 120.46 240.97 120.46 240.97 219.42 235.97 219.42 235.97 120.46 227.98 120.46 227.98 115.46 248.95 115.46"/>
    <polygon points="171.39 120.46 171.39 131.95 187.36 131.95 187.36 136.95 171.39 136.95 171.39 214.42 187.36 214.42 187.36 219.42 166.39 219.42 166.39 115.46 187.36 115.46 187.36 120.46 171.39 120.46"/>
    <path d="m279.62,10.71c.07,6.53-2.95,12.45-7.61,16.16v77.09h-5V29.73c-1.69.64-3.48,1.03-5.35,1.12-.29,0-.58.02-.87.02-4.65,0-9.13-1.85-12.67-5.25-.53-.51-1.03-1.04-1.49-1.6v79.94h-5V0h5l.26,10.76c0,2.08,1.68,8.36,4.69,11.25,2.76,2.66,6.25,4.02,9.84,3.84,2-.1,3.9-.67,5.59-1.61V0h5v19.58c1.67-2.5,2.64-5.55,2.61-8.81l-.03-2.5,5-.06.03,2.5Z"/>
    <path d="m333.34,82.47h-.59c-.51,0-1-.07-1.46-.2l2.05.2Z"/>
    <path d="m66.13,123.63c-1.16-4.66-5.42-8.15-10.44-8.17h-10.74v103.96h5v-16.49h5.75c5.01-.03,9.26-3.51,10.42-8.17.21-.8.31-1.63.32-2.48v-66.18c0-.85-.11-1.68-.31-2.47Zm-4.69,68.6c-.03,3.13-2.61,5.68-5.75,5.7h-5.74v-77.47h5.73c3.15.01,5.73,2.56,5.76,5.69v66.08Z"/>
    <path d="m133.03,115.46v103.96h-5v-.84c-1.39.56-2.86.85-4.36.85s-3.15-.31-4.69-.95c-4.59-1.9-7.45-6.17-7.45-11.14v-91.88h5v91.88c0,3.48,2.26,5.65,4.36,6.52,1.95.81,4.77.93,7.14-1.01v-97.39h5Z"/>
    <path d="m220.91,142.79v76.63h-5v-76.72c.02-.53,0-2.78-1.78-4.39-1.39-1.25-3.08-1.36-3.71-1.36h-.35c-.78-.01-1.53-.1-2.26-.27-1.22-.27-2.37-.76-3.39-1.42v84.16h-5v-103.96h5v10.74c.01,3.14,2.56,5.72,5.69,5.75h.05c1.5,0,2.92-.59,4.02-1.67,1.11-1.1,1.73-2.55,1.73-4.09v-10.73h5v10.74c-.01,2.89-1.16,5.6-3.22,7.64-.17.17-.35.33-.53.49.1.08.21.17.31.26,3.36,3.01,3.48,7.04,3.44,8.2Z"/>
    <path d="m309.48,123.63c-1.16-4.66-5.41-8.15-10.43-8.17h-10.75v103.96h5v-16.49h5.76c5.01-.03,9.25-3.51,10.42-8.17.2-.8.31-1.63.32-2.48v-66.18c0-.85-.12-1.68-.32-2.47Zm-4.68,68.6c-.03,3.13-2.62,5.68-5.75,5.7h-5.75v-77.47h5.74c3.14.01,5.73,2.56,5.76,5.69v66.08Z"/>
    <rect x="173.3" width="5" height="103.96"/>
    <polygon points="228.53 0 228.53 103.96 223.53 103.96 223.53 91.01 212.04 102.5 212.04 103.96 207.04 103.96 207.04 0 212.04 0 212.04 95.42 223.53 83.93 223.53 0 228.53 0"/>
    <g>
      <line x1="284.81" y1="82.47" x2="284.56" y2="85.21"/>
      <path d="m309.57.55c-.59-.47-1.36-.65-2.1-.5-2.6.56-6.43,1.89-9.92,5.08-5.34,4.87-6.56,11.12-6.85,13.63l-6.14,66.45-1.71,18.51,4.97.46,1.55-16.71h16.13v16.49h5V2.5c0-.76-.34-1.47-.93-1.95Zm-19.74,81.92l5.85-63.2c.21-1.9,1.15-6.72,5.24-10.45,1.51-1.38,3.11-2.3,4.58-2.92v76.57h-15.67Z"/>
    </g>
    <path d="m35.29,116.01c-.59-.47-1.36-.66-2.09-.5-2.6.56-6.44,1.89-9.92,5.08-5.34,4.86-6.57,11.12-6.85,13.63l-5.89,63.71-.25,2.66-1.72,18.59,4.98.46,1.54-16.71h16.13v16.49h5v-101.46c0-.76-.34-1.47-.93-1.95Zm-4.07,81.92h-15.66l5.84-63.2c.22-1.9,1.16-6.72,5.24-10.45,1.52-1.38,3.12-2.3,4.58-2.92v76.57Z"/>
    <path d="m332.73,0c-5.01.02-9.26,3.51-10.42,8.17-.21.79-.31,1.63-.32,2.48v66.17c0,.85.11,1.68.32,2.48.86,3.45,3.41,6.26,6.72,7.49l-7.89,15.79,4.47,2.24,8.67-17.35h4.21v16.49h5V0h-10.76Zm5.76,82.47h-5.74c-.51,0-1-.07-1.46-.2-2.45-.64-4.27-2.87-4.3-5.5V10.69c.03-3.12,2.61-5.68,5.75-5.69h5.75v77.47Z"/>
    <g>
      <polygon points="321.99 10.65 321.99 13.15 321.97 13.15 321.99 10.65"/>
      <polygon points="321.99 74.32 321.99 76.82 321.97 74.32 321.99 74.32"/>
      <path d="m322.31,79.3l-.32-2.48c0,.85.11,1.68.32,2.48Z"/>
      <path d="m322.31,8.17c-.21.79-.31,1.63-.32,2.48l.32-2.48Z"/>
    </g>
  </g>
</svg>